<?xml version="1.0" encoding="utf-8"?>
<!-- Generator: Adobe Illustrator 22.0.0, SVG Export Plug-In . SVG Version: 6.00 Build 0)  -->
<svg version="1.1" id="Camada_1" xmlns="http://www.w3.org/2000/svg" xmlns:xlink="http://www.w3.org/1999/xlink" x="0px" y="0px"
	 viewBox="0 0 1080 1080" style="enable-background:new 0 0 1080 1080;" xml:space="preserve">
<style type="text/css">
	.st0{fill:#D66528;}
	.st1{fill:#C75128;}
	.st2{fill:#B12F2A;}
	.st3{fill:#AE2F2D;}
	.st4{fill:#C04227;}
	.st5{fill:#E67E25;}
	.st6{fill:#DB7227;}
	.st7{fill:#D26228;}
	.st8{fill:#CB6129;}
	.st9{fill:#DB7128;}
	.st10{fill:#B5392A;}
	.st11{fill:#B44F2C;}
	.st12{fill:#B7532B;}
	.st13{fill:#A03634;}
	.st14{fill:#B9442A;}
	.st15{fill:#AF472F;}
	.st16{fill:#D88F35;}
	.st17{fill:#AD4C2F;}
	.st18{fill:#C06A2E;}
	.st19{fill:#B27B48;}
	.st20{fill:#9D3A3A;}
	.st21{fill:#A03C38;}
	.st22{fill:#BC864F;}
	.st23{fill:#A7523B;}
	.st24{fill:#AB3C42;}
	.st25{fill:#B27343;}
	.st26{fill:#BD7952;}
	.st27{fill:#B46247;}
	.st28{fill:#9F5851;}
	.st29{fill:#F9EBD6;}
	.st30{fill:#B22E2A;}
</style>
<g>
	<g>
		<g>
			<path class="st0" d="M605.7,323c-7.6-0.3-15,1.1-22.2,3c-4.1,1.1-8,0.8-12,0.6c-2.4-0.3-2.1,1.7-2.5,3.1
				c-0.4,2.3-1.8,4.7,0.6,6.7c0.2,0.2,0.5,0.6,0.3,0.8c-2.5,2.7,0.6,2.5,1.6,2.8c2.7,0.7,5.4,1.8,8.3,1.1c0.7-0.2,1.6,0,1.8-1.2
				c0.3-1.3,0.4,0.6,0.7,0.1c0.3,0,0.6-0.1,0.8-0.4c0.9-0.8,1.6-2.4,3.2-1.4c1.7,1.1,0.5,2.5,0.1,3.7c-1.3,4.1,0,6.2,4.9,7.4
				c1.9,0.4,4,0.7,6,0.4c0.3-0.5,0.5-0.6,1.2-0.3c12.3,3.9,22,11.7,31.5,20c4.5,4,9.4,7.2,14.9,9.8c10.7,5.2,19.5-2.6,21.1-10.4
				c0.9-4.3,0.7-8.7-0.2-13c-0.2-0.8-0.4-1.6-1.2-2c-4,1.2-7.5,0.1-10.4-2.9c-0.6-0.7-1.1-1.5-1.9-1.9c-6.8-4-13.7-8-21.1-10.9
				c-3.3-1.3-6.2-2.2-6.7-6.1c-0.6-0.7-1.4-1.1-2.4-1.2c-7.6-1.1-15.2-2.3-22.5-1.7c2.5-0.7,5.5,0.3,8.3-0.9
				c0.9-1.5-0.2-2.4-1.3-2.7C605.3,324.8,605.7,323.9,605.7,323z"/>
		</g>
		<g>
			<path class="st1" d="M597.6,349.2c-2.3-0.8-4.8,0-7-1c-4.5-2-4.5-2-3.2-6.6c-1.9,0.3-3.3-0.7-4.6-1.8c-0.8-0.7,0.2-1.5-0.2-2.3
				c-0.3,0.1-0.6,0.2-0.8,0.3c-1.1,0.5-0.2,2.5-1,2.4c-2-0.2-4,1-5.9-0.3c-1.6-1.1-3.9,0.4-5.2-1.7c0.6-0.4,1.7,0.4,2.1-0.7
				c0.3-0.9-0.7-1.1-1.2-1.5c-2.6-1.9-0.6-4.2-0.6-6.3c-0.1-0.3-0.2-0.5-0.5-0.7c-2.9-0.3-5.7,0.1-8.5,0.8c-2.9,1.3-6,0.7-9,1.5
				c-1.3,1.8-0.2,2.4,1.4,2.8c4.1,2,8.6,2.6,12.8,4.3c2.5,1,4.9,1.9,7.4,3.1c-2.5,0.4-5,0.6-7.5,0c-0.7,1.2-0.1,1.7,1.1,1.9
				c4.2,0.9,8.5,1.9,12.7,2.6c6.2,1.1,11.6,3.5,15.9,8.2c-0.3,1.5-0.7,2.3-2.6,1.2c-2.3-1.3-3.3-0.8-4.1,1.5
				c0.1,0.3,0.6,0.4,0.5,0.8c-0.2-0.3-0.5-0.2-0.7-0.2c-0.2,0-0.4,0.1-0.5,0.1c-0.8,0.4-1.8,0.8-1.4,2c0.4,1.1,1.5,0.9,2.3,0.9
				c1.7,0,3.4,0,5,0.6c2.7,0.1,5.4,0.4,8.1,0.1c3.4-0.4,5.7,1.1,7.8,3.4c0.1,0.6,1.2,1.5-0.5,1.6c-0.7,0.1-1.3,0.3-2,0.6
				c-4.4,0.5-8.9-0.1-13.2,1.1c-1.1,0.3-2.1,0.7-3.1,1c-0.7,1.2-3.1,1.8-2,3.4c1,1.4,2.4-0.3,3.7-0.7c0.5-0.2,1-0.2,1.5,0
				c3.7-0.2,7.3,0,10.9,0.7c2.6,0.9,5.3,1,7.9,1.1c-2.5,0.4-5.3,0.1-7.7,1.7c-1.3,1.3-3.1,0.9-4.5,1.4c-0.9,0.4-2.2,0.5-1.9,1.9
				c0.3,1.4,1.4,1,2.4,0.9c3.3-0.2,6.6-0.1,9.8,0.4c0.9,0.4,1.9,0.4,2.8,0.1c1.1,0.1,2.3,0.6,3.2,0.2c-2.1,0.6-4.2,1.9-6.4,2.9
				c-0.1,0.1-0.2,0.2-0.3,0.4c-0.5,0.4-1,0.7-1.4,1.2c-0.7,0.7-0.6,1.5-0.2,2.2c0.4,0.7,1.1,0.9,1.8,0.7c1.9-0.4,3.8-0.5,5.7-0.8
				c1.1,0,2.1,0.2,3.1-0.4c1.4,0.3,2.9-0.7,4.3,0.1c-0.3,0.9-1,1.3-1.9,1.4c-0.3,0.1-0.5,0.2-0.7,0.3c-0.4,0.4-0.7,0.9-1.3,1.3
				c-0.9,0.6-1.9,1.3-1.2,2.7c0.7,1.2,1.8,1.1,2.9,0.9c1.1-0.2,2.1-0.7,3.2-0.2c0.3,0.1,0.6,0.3,1,0.4c-0.2,3-1,5.9-2.3,8.6
				c-0.7,1.4-1.2,2.7,0.3,3.8c1.6,1.2,2.7,0.1,4-0.8c3.4-2.3,5.7-5.6,7.7-9.1c0.3-0.4,0.5-0.8,0.8-1.2c0.6-0.9,0.3-2.8,1.9-2.6
				c1.4,0.2,2.4,1.3,2.7,2.8c0.1,0.4,0.2,0.8,0.4,1.1c0.1,0.4,0.9-0.3,0.7,0.3c-0.7,1.9-0.4,3.7,0.2,5.6c0.4,1.2,1.2,2.4,2.5,2.2
				c2.9-0.5,4.9,1.6,7.4,2.1c2.8,1.6,5.1,4,7.9,5.6c4.1,2.1,8.2,4,12.9,4.1c1.2,0,2.5,0.1,3.5-0.7c3.6-3.5,6.7-7.4,9.6-11.5
				c0.7-0.6,1.1-1.5,1.5-2.4c-2.3-0.2-4.4-1.1-6.5-1.9c-2-0.7-3.6-1.8-4.1-4c-1-1-2-0.4-3.1-0.2c-3.3,0.6-6.7,1.3-10.1,1.3
				c-1.3,0-2.6-0.1-4-0.1c1.3-0.1,2.4,0,3.6,0c2.9-0.3,6-0.2,8.2-2.6c0-0.7-0.4-1.2-1-1.3c-1.6-0.4-2.3-1.5-2.6-3
				c-0.3-1.1-1-2.1-2-2.5c-2.6-1-4.9-2.6-7.3-4c-6.1,1.6-12.1,1.5-17.6-1.9c-4.7-2.8-9-6.2-12.9-10c-5.6-5.5-11.5-10.8-18-15.3
				C606.4,352.6,602.3,350.2,597.6,349.2z"/>
		</g>
		<g>
			<path class="st2" d="M653,445.8c-5.2,2.8-10.9,3.6-16.6,4.4c1.8,1.7,2.5,2,6.4,2.5c6.8,0.8,13.3-0.6,19.2-4.2
				c0.8-0.5,1.5-1.1,2.1-1.7c1.3-1.4,1.4-2.5-0.7-3.4c-5.2-2.3-10.1-5-14-9.3c-1.5-3.4-4.4-5.9-5.8-9.3c-0.9-2.4-2.1-3-4.5-1.6
				c-2.3,1.4-4.3,0.1-4.7-2.6c-0.5-3.2,1.1-5.8,2.5-8.5c0.6-1.2,1.6-2.3,2.3-3.5c0.4-0.7,1.2-1.7-0.6-1.9c-3.5,2.3-5.6,5.7-7.5,9.2
				c-1.4,3.4-3.5,5.9-7.6,6.4c-3.1,0.4-4.3,3.8-6.6,5.6c-1.8,1.4-3.6,3.2-4.7,5.5c-0.7,1.6-2.4,2-4,2.4c-1.4,0.3-2.8,1.1-2.3,2.6
				c0.7,2,0.5,4.1,0.6,6.1c0.4,0.4,1.2,0.3,1.2,1.1c0,1.8,0.3,3.4,1.5,4.8c1.2,1.6,2.5,2.9,4.9,3.3c5,1,10,1.5,15.1,1.3
				c0.2,0,0.4,0.4,0.6,0.6c-0.6,0.3-0.3,1-0.6,1.6c-2.2,3.3-2.1,3.3,1.7,4.7c2.3,0.5,4.6,0,6.8-0.7c0.9-0.3,1.8-0.6,2.1-1.5
				c0.3-1.1-0.8-1.5-1.5-2c-4.4-3.4-8.3-7.3-10.5-12.5c-0.6-3.4-2-6.7-1.7-10.1c0.1,3.3,0.3,6.7,3,9.3c0.7,1.2,1.9,1.3,3.1,1.5
				c7,1,13.9,0.2,20.8-1.2c0.6,0,1.1,0.1,1.8-0.3C654.1,444.7,653.5,445.2,653,445.8z"/>
		</g>
		<g>
			<path class="st3" d="M607.3,444.4c-0.4-0.3-0.9-0.8-0.4-1.2c1.4-1.2,1.1-2.4,0.2-3.7c-1.4-1.9-0.8-3.1,1.5-3.2
				c2.4-0.1,4.1-1.3,4.8-3.5c0.7-2.2,2.7-3.5,4.1-4.6c2.9-2.2,4.5-6.2,9.4-6.1c1.9,0,4-3.1,4.7-5.8c-6.7,4-14.2,7-19,13.7
				c-1.6,2.2-3.7,3.7-6.2,4.7c-4.5,1.8-8.9,3.9-13.3,6c-5.1,2.5-10.1,5.2-15.2,7.7c-2.3,0.7-3.7,3-6.1,3.5c-0.2,0-0.3,0.1-0.3,0.3
				c-1.6,1.9-2.8,4.1-5.4,5c-2.4,3.5-5.6,3-9.2,2.3c-17.6-3.4-35.2-6.4-52.8-9.6c-0.9-0.2-1.8-0.4-2.7-0.3c-1.2,0-2.7-0.7-3.4,0.5
				c-0.8,1.5,0.5,2.7,1.4,3.7c3.5,3.9,8.1,6,13,7.4c4.1,1.9,8.5,0.8,12.8,1c2.8,0.2,5.6-0.1,8.4-0.4c2.8-0.2,5.6,0,7.8-0.2
				c-2.1,0.4-4.8,0-7.5,0.2c-5.2,0.3-10.3,0.5-15.5,0.5c-1.8,0-3.7-0.2-5.4,0.7c-1.3,0-2.6,0.1-3.9,0.1c-2.6,0.1-3.1,1-1.8,3.2
				c2.5,4.4,7.2,6.3,13,5.2c2.1-0.4,4.1-1,6.2-1.5c4.7,0,9-1.7,13.5-2.5c2-0.4,3.9-0.9,5.8-1.5c1.4,0,2.7-0.5,4-0.9
				c-1.3,0.4-2.5,0.9-3.8,0.9c-6.4,1.7-12.9,3-19,5.7c-1.9,0.6-3.9,1.2-5.8,1.8c-0.7,0.2-1.8,0.2-1.9,1.2c-0.1,1.2,1,1.8,1.8,2.2
				c3.9,2,7.9,2.2,12.1,1.1c7.8-2,15.2-5.1,22.4-8.7c1.9-1,3.9-1.8,5.6-3c2-1.4,4.1-2.1,6.5-1.5c0.6-0.5,1.9,0,2-1.3
				c-0.5-1-1.4-1.1-2.3-1.3c-1-0.2-1.7-0.6-1.8-1.7c0-0.6,0.2-1.2,0.8-1.5c0.9-0.5,1.8,0,2.6,0.4c0.8,0.4,0.8,1.4,1.6,1.8
				c0.5,0.2,1.1,0.4,1.6,0.5c1.1,0.3,2.2,0.1,3.4,0.3c1.8,0.1,3.5-0.3,5-1.1c0.5-0.4,0.9-0.8,0.9-1.4c-0.6-1.2-1.8-1.6-3-1.9
				c-1.5-0.4-1.7-1-0.5-2c0.6-0.4,1.3-0.9,1.4-1.5c0.4-3.8,3.2-4.6,6.3-5.4c2.1-0.5,4-1.7,5.7-3.2c1.9-1.7,4.5-2.2,6.8-3
				c1.2-0.4,2.3-0.6,2.9-1.9c0.3-0.8,1.1-1.5,1.9-1.1c1,0.5,0.3,1.5-0.1,2.1c-2.4,3.5,0.3,6.3,1.3,9.4c0.2,0.7,1,0.6,1.6,0.3
				c0.7-0.8,1.3-1.9,0.8-2.7C606,447,607.1,445.8,607.3,444.4z"/>
		</g>
		<g>
			<path class="st4" d="M639.1,406.7c-1.2,3-3.5,5.4-4.8,8.5c-0.9,2.2-0.9,4.3-0.7,6.5c0.3,2.6,3.8,3.8,6,2.2c0.6-0.5,1.3-0.8,2-1.3
				c0.5,0.9,1,1.8,1.4,2.7c2.1,1.7,2.7,4.6,4.9,6.3c1.6,1.2,3.1,2.1,5.1,1.8c7.6-1.9,15-4.6,21.9-8.4c2-0.5,2-0.5,3.9-2
				c-1.3,1.1-2.7,2.1-3.5,3.7c-3.9,3.7-8.8,6-13.5,8.4c-0.9,0.4-1.9,0.5-2.7,1.5c2.1,1,4.3,0.8,6.3,0.4c10.4-1.9,18.7-7.1,24.7-15.9
				c0.7-1,1.6-2.1,0.8-3.3c-0.8-1.3-2-0.4-3-0.3c-3.3,0.4-6.6,0.7-9.9,0.2c-2.7-1.3-5.7-1.2-8.5-2.1c-6-1.9-11.4-4.7-15.8-9.3
				c-0.4-0.4-0.8-1-1.5-0.9c-0.9-0.4-1.5-1.4-2.7-1.2c-1.8,0.3-1.5-0.9-1.3-2c-3.9,2.2-5.3,1.5-5.6-2.9c-0.1-1.1,0.1-2.2,0-3.3
				c0-1.1-0.5-0.4-0.8-0.1c-1,0.3-1.3,1.2-1.5,2.1C639.7,400.8,639.3,403.7,639.1,406.7z"/>
		</g>
		<g>
			<path class="st5" d="M662.5,311.6c-6.7,3.4-12.8-0.5-12.5-8.1c0-1.3,0.9-1.7,1.7-2.3c1.4-1.1,1.4-2.4,0.5-3.7
				c-0.8-1.1-2-1.4-3.2-0.7c-1.6,0.8-1.7,2.2-1.2,3.7c1,2.9-1,7.6-3.9,8.7c-2.1,0.8-3.6-0.6-4.9-1.8c-1.2-1.1-3.1-2.3-2-4.6
				c0.8-1.6,0.4-3-1.2-3.8c-1.2-0.6-2.5-0.5-3.3,0.7c-1,1.5-0.5,3.1,0.9,4c1.4,0.9,1.3,2.2,1.3,3.5c0,3.9,0,7.9,0,11.8
				c0,1.9,0.6,2.6,2.6,3.1c13.4,3,25.6,8.3,35.4,18.2c1.1,1.1,1.9,0.9,2.9,0.2c3-1.9,5.9-3.8,8.9-5.8c1.8-1.2,3.4-2.7,6-1.6
				c1.2,0.5,2.6-0.4,3-1.9c0.3-1.3-0.2-2.5-1.4-3.1c-1.1-0.5-2.6-0.7-3.2,0.7c-1.4,3.2-3.8,1.9-6,1.6c-2.5-0.4-3.9-2-4.1-4.5
				c-0.3-0.5,0.1-0.9,0.2-1.4c0.3-0.9,1.4-1.7,0.6-2.7c-0.8-1.1-1.9-0.7-3-0.4c-6,1.5-9.6-0.9-10.6-7.1
				C665.6,312.1,665.1,310.4,662.5,311.6z"/>
		</g>
		<g>
			<path class="st6" d="M605.7,323c-1.4,1.3-1.5,2.4,0.6,2.9c1,0.2,1.4,1,1.8,1.9c0.8,1.3,2.2,0.9,3.3,1c9.4,0.6,18.4,2.7,26.3,4.6
				c-2.7-0.9-6.9-1.1-10.9-2c-1-0.2-2.2-0.7-3,0.6c0.4,0.7,1.2,1.3,0.8,2.2c-1,2.7,1.1,3.5,2.7,3.7c4.3,0.6,7.7,3,11.4,4.8
				c3.2,1.6,6.3,3.3,9.4,4.9c2.3,1.2,4.6,2.4,6.1,4.8c1,1.6,2.8,2.2,4.7,2.5c0.8,0.1,1.8,0,2.3,0.4c1.8,1.4,2.6,0.5,3.2-1.2
				c1.1-1.6,0-3-0.5-4.4c-0.4-1.4-1-2.8-1.6-4.1c-1-1.5-2.1-2.9-2.7-3.7c0.9,1.2,2.5,2.6,3.6,4.6c1.8,4,3.7,8,4.4,12.4
				c0.2,0.9,0.2,2,1.2,2.6c2-0.3,3.8-1,5.8,0.7c1.2,1,1.3-1.1,1.8-2c0.8-3.1-0.4-5.8-1.9-8.4c-4.7-9.9-12.9-15.8-22.4-20.4
				c-14.4-7-29.9-9.1-45.7-8.6C606.3,322.7,606,322.9,605.7,323z"/>
		</g>
		<g>
			<path class="st7" d="M675.9,359.9c-0.2,0.6-0.4,1.3-0.7,2.3c-1.8-3.5-4-2.7-6.2-1c-0.5,0.4-0.8,1-0.7,1.6
				c0.6,5.2-1.1,9.9-3.5,14.3c-0.7,2.1-0.9,4.6-4,4.6c-0.6,0.3-1.6,0-1.5,1.2c1.1,2,2.6,3.1,5,3.5c1.3,0.2,2.9,1.1,2.9,2.3
				c0,3.1,2.2,3.7,4.3,4.7c3.1,0.8,5.3-1.2,7.6-2.8c2.6-1.9,5.1-3.7,7.7-5.6c3.2-1.2,4.5-4.2,6.2-6.7c0.9-1.4,0.7-3.1-0.4-4.5
				c-0.9-0.9-2-1.6-2.7-2.8c-0.8-1.4-1.9-2-3.5-1.1c-1.1,0.7-1.9,0.3-2.6-0.6c-0.5-0.6-1.1-1-1.8-1c-2.1,0.1-3.1-0.5-2.8-2.9
				c0.2-2-1-1.1-1.8-0.3c-1,2.1-1,4.5-2.2,6.2c1.2-2.5,2.1-5.4,2-8.5C677.1,361.7,677.2,360.5,675.9,359.9z"/>
		</g>
		<g>
			<path class="st8" d="M676.8,394.9c-0.3,2,0.6,3,2.3,4c1.9,1.1,4.2,1,5.9,2.8c1.2,1.2,1.5-1.2,2.6-1.2c0.5-0.1,0.8-0.5,1-1
				c1.2-3.1,2.9-6,4.5-8.9c0.7,0.4,0.2,0.9,0.1,1.3c-1.7,5.3-2.8,10.8-5.8,15.5c-0.8,1.6-1.6,3.1-2.7,5.1c4.3-1.3,7.1-3.9,9.4-6.9
				c5-6.7,7.1-14.2,6.3-22.6c-0.1-1.4-0.4-2.8-1.7-3.4c-1.5-0.7-2.1,0.9-2.8,1.7c-3.8,4.4-8.7,7.5-13.4,10.9
				c-0.3,0.2-0.8,0.1-1.2,0.1C679.5,392.7,677.8,393.2,676.8,394.9z"/>
		</g>
		<g>
			<path class="st9" d="M677.8,365.3c0.1-0.1,0.3-0.4,0.4-0.4c0.4-0.1,0.4,0.2,0.3,0.4c-1.1,2.7-0.7,4.4,2.8,3.6
				c0.3-0.1,0.8-0.1,0.9,0c1.5,2.3,3.3,3.2,5.7,1c0.3-0.3,0.9,0.6,1.2,1.1c0.6,1.4,1.6,2.3,3,2.8c0.5-0.6,0.2-1.2,0.2-1.9
				c-0.1-0.3-0.2-0.6-0.2-0.9c0-0.6-0.2-1-0.7-1.3c-0.7-0.9-3.7-1.2-0.8-3.1c0.1-3.3-1.9-6-2.7-9.1c-0.3-1.1-0.9-2.2-1.6-3.3
				c-0.4-0.8-1.2-1.4-1.5-2.2c-0.3-0.4,0.4-0.3,0-0.2c0.5,1.4,1.8,2.1,2.3,3.5c2.6,4.1,4.8,8.4,6.7,12.9c0.5,1.1,0.8,2.4,2.3,2.4
				c1.6-9.5-3.1-16.1-9.8-21.8c-1.7-1.5-3.7-2.8-6-3.5c-2.8-0.9-3.9-0.1-3.4,2.8c0.2,1.2,0.4,2.4,0.6,3.6
				C677.4,356.3,676.9,360.8,677.8,365.3z"/>
		</g>
		<g>
			<path class="st10" d="M635.2,395c-0.7,0.3-1.2,0.9-1.3,1.6c-1,4.1-5.1,5.5-7.4,8.4c-0.7,0.8-1.7,0.6-2.4-0.1
				c-0.8-0.8-0.6-1.5,0-2.4c2.1-2.8,2-6.2,2.4-9.4c0,0-0.2-0.1-0.2-0.1c-0.1,0-0.2,0-0.3,0.1c-4.2,12.4-12.2,22.2-21.2,31.3
				c-3.8,4.8-8.9,8.1-13.5,11.9c-2.3,1.9-2.4,2.4-0.1,3.8c0.3,0.1,0.7,0.1,1,0.1c0.9-0.1,1.7-0.6,2.5-1.1
				c10.4-7.4,20.8-14.8,29.4-24.5c4.5-5.1,7.9-10.8,10.8-16.8C635.2,397,635.8,396.1,635.2,395z"/>
		</g>
		<g>
			<path class="st11" d="M594.2,361.2c-1.4-1.9-3.3-1.1-5.1-1.1c-0.7,0-1.6,0.4-1.9-0.4c-0.4-1.2,1.1-0.8,1.4-1.5
				c-1.7-1.8-4-0.6-6-1.2c-3.9-0.4-7.9-0.3-11.8-1c-8.9-1-17.7-2-26.2-4.9c-4.9-1.7-9.7-3.4-13.6-7.2c-3.6-3.6-4.8-7.6-3.7-12.4
				c0.9-3.8,2.5-7.3,5.3-10.1c0.7-0.7,1.3-1.5,1.8-2.4c0.6-1.6,2.2-2.5,2.6-4.2c0.1-0.9,0.1-1.8-1-2c-5.8,5.1-10.1,11.3-12.3,18.7
				c-1.9,6.4,0.9,12.8,6.9,17.1c7,4.9,15.1,7.1,23.4,8.9C567.3,360.1,580.7,361.2,594.2,361.2z"/>
		</g>
		<g>
			<path class="st12" d="M589.2,357.2c1-2.7,2.5-1.7,4.1-0.7c0.6,0.4,1.3,1,2.1,0.9c-0.2-1,1.6-2,0.2-3c-13.4-0.3-26.6-1.9-39.3-6.7
				c-4.4-1.6-8.6-3.7-12.2-6.8c-7.5-6.4-8.6-14.4-5.6-23.4c-2.1-0.6-2.6,1.1-3.5,2.3c-3.4,8.8,0.1,19.1,8.8,25.4
				c7.3,5.3,15.6,8,24.3,9.9c4.6,1.2,9.3,1.7,14,2.1C584.5,357.2,586.8,358,589.2,357.2z"/>
		</g>
		<g>
			<path class="st13" d="M569.7,463.9c-0.7,0.4-1.3,0.8-2,1.2c7.3,1.5,14.7,0.9,22,0.6c7-0.3,13.9-0.9,20.8-2.3
				c1.2-0.2,2.4-0.5,3.5-0.9c1.2-0.4,1.5-1.1,0.2-1.8c-3.9-2.3-5.6-5.9-6.5-10.1c0.6-1.8-0.4-3.9,0.8-5.6c-0.1-0.4-0.1-0.8-0.3-1
				c-0.4-0.3-0.6,0.2-0.8,0.5c-1,1.1-3.1,1.9-1.1,4c0.4,0.5-0.2,1.9-0.3,2.8c-0.7,3.6,1.6,5.7,3.6,8c0.5,0.5,1.3,0.6,1.5,1.5
				c-2.1,1.8-4.9,0.5-7.3,2c0.1-0.9,0.6-0.8,0.9-1c1.1-0.5,2.5-1.1,2.3-2.5c-0.2-1.2-1.8-1.1-2.8-1.4c-3.2-0.9-6.4,0.3-9.7,0.1
				c-1.7-0.1-3-0.2-4.3-1.6c-1-1.2-2.5-1.6-2.5,0.8c0,1.3-0.5,1.3-1.4,1.2c-1.7-0.2-3.5-0.2-4.8,1.2c-0.4,0.4-0.8,0.7-1.2,1.1
				c0.5,0.6,1.2,0.7,1.9,0.6c6.3-0.4,12.7-0.6,18.6-1c-7.6,2.2-15.8,2.1-24.1,1.8c-1.4-0.5-3,0.4-4.2-0.8c-0.5-0.3-0.9-0.5-1.5-0.2
				C569.9,461.7,570.5,463.2,569.7,463.9z"/>
		</g>
		<g>
			<path class="st14" d="M625.1,392.7c-0.5-1.2-1.3-1.6-2.5-0.8c-1.1,0.7-2.5,1-3.2-0.1c-0.9-1.4,0.9-1.6,1.5-2.4
				c0.3-0.5,0.6-1,0.8-1.5c-0.4-0.2-0.8-0.1-1.1,0.3c-6.5,4-13,7.9-19.4,11.9c-1.3,0.8-2.7,1.4-3.6,2.6c-1,0.9-2,2-3,2.9
				c-0.6,0.5-1,1.1-0.5,1.8c0.5,0.7,1.2,0.6,1.9,0.2c1.3-0.7,2.4-1.8,3.9-2.1C608.3,401.2,616.7,397,625.1,392.7z"/>
		</g>
		<g>
			<path class="st15" d="M616.5,386.6c-1.5-0.7-3.1,0-4.7-0.1c-0.8,0-1.7,1.1-2.4-0.1c-0.6-1,0.3-1.6,0.7-2.3
				c0.2-0.2,0.3-0.5,0.4-0.8c-11.1,2.7-19.4,9.2-25.6,18.7c-1,1.6-2.2,3.2-3.3,4.8c-0.5,0.8-1.9,1.3-0.6,2.5
				c3.8-5.1,8.2-9.7,13-13.9c5.4-4.8,12.3-5.9,18.9-7.7C614.2,387.3,615.3,386.9,616.5,386.6z"/>
		</g>
		<g>
			<path class="st16" d="M662.5,311.6c1.7-0.3,2.4,0.5,2.7,2.2c1.2,6.6,5.2,9.2,11.5,7.8c0.8-0.2,1.6-0.3,2.3,0.3
				c0.8,0.8,0.1,1.5-0.2,2.2c-0.2,0.6-0.5,1.1,0,1.7c0.7-1.5,1.4-2.9,2-4.4c0.6-1.3,1-2.5,3.1-2.2c1.6,0.2,2.6-1.1,2.5-2.7
				c-0.1-1.4-0.7-2.5-2.4-2.7c-1.7-0.1-2.7,0.7-3.1,2.2c-0.3,1,0.7,2.4-0.6,3c-2.1,1-4.1,2.2-6.6,2.1c-4.2-0.2-6.6-2-7.1-5.6
				c-0.3-2.4,0.2-4.8,0.7-7.2c0.2-1.1,1.1-1.2,2-1.5c1.8-0.5,2.7-1.8,2-3.7c-0.5-1.4-1.7-2.1-3.1-1.7c-1.9,0.5-2.6,2-1.9,3.8
				c0.6,1.5,0,2.5-0.9,3.5C664.5,309.6,663.5,310.6,662.5,311.6z"/>
		</g>
		<g>
			<path class="st17" d="M611.1,379.7c-0.1-0.9-0.7-1.2-1.5-1.1c-3,0.6-6.1-0.9-9.1,0.4c-0.5,0.2-1,0-1.2-0.6
				c-0.2-0.7,0.3-0.9,0.8-1c1.2-0.3,2.3-0.7,3.5-0.9c1-0.1,1.8-0.3,2.2-1.3c-0.3-0.4-0.7-0.6-1.1-0.2c-7,1.1-12.7,4.4-17.7,9.3
				c-1.2,1.1-1.4,3-3,3.6c-0.6,1-2.2,1.8-0.8,3.2c4.2-4,8.5-7.9,14-10c2.2-0.8,4.3-1.6,6.7-1.3c1.7,0.3,3.3,0,5,0.1
				C609.7,379.9,610.4,379.8,611.1,379.7z"/>
		</g>
		<g>
			<path class="st18" d="M535.7,320.2c0.6-1.2,1.3-2.4,2.8-2.7c1.3-3.8,2.9-7.4,6.5-9.6c0-2.2-0.3-4.4,1.6-6.1
				c2.6-3.2,5.3-6.3,7.9-9.5c0.6-0.6,1-1.2-0.1-1.7c-4.7,3.6-8.4,8.1-11.4,13.1c-2,3.3-4.2,6.4-7,9c0.5,0.6,0.6,1.2,0.6,2
				c-0.2,1.4-1.3,2.5-1.5,4C535,319.3,534.9,319.9,535.7,320.2z"/>
		</g>
		<g>
			<path class="st19" d="M546.6,301.8c-2.3,1.5-2.5,3.7-1.6,6.1c10.3-6.7,22-7.8,33.9-8.3c4.1-0.2,8.2-0.8,12.3-1.1
				c0.4-0.1,0.5-0.4,0.3-0.7c-10.2,0.8-20.6,0.4-30.8,2.1c-5.4,0.9-10.5,2.8-16.2,5.9C545.5,303.9,546.1,302.8,546.6,301.8z"/>
		</g>
		<g>
			<path class="st20" d="M591.5,439.6c-1.4-0.4-2.5-1.2-0.7-2.3c3.5-2,5.8-5.6,9.6-7.3c2.3-1,3.4-3.4,4.4-5.6
				c-11,9.2-22,18.3-33,27.5c2.9,0.9,4-2.4,6.3-2.9c3.5-2.3,7.1-4.3,10.6-6.5C589.9,441.8,591.4,441.3,591.5,439.6z"/>
		</g>
		<g>
			<path class="st21" d="M599.9,405.5c-1.7-0.2-2.7,1.1-4.1,1.7c-0.5,0.2-1,0.4-1.3-0.2c-0.1-0.3,0.1-0.8,0.4-1c1-1,2.2-1.8,2.8-3.2
				c-3.3,1.8-5.6,4.6-7.7,7.5c-4,5.4-6.7,11.5-8.5,17.9C585.9,419.3,591.1,410.9,599.9,405.5z"/>
		</g>
		<g>
			<path class="st22" d="M553.5,291.5c0.4,0.5,1.2,0.2,1.1,0.8c7.9-6.7,16.6-11.8,26.7-14.3c0.3-0.5,0.3-0.9-0.3-1
				c-9.5,1.9-17.8,6.2-25.3,12.2C555.1,289.6,553.8,291.1,553.5,291.5z"/>
		</g>
		<g>
			<path class="st23" d="M594.3,371.6c-1.8-1.4-3,1.3-5,0.5c0.6-1.1,1.2-2.1,1.9-3.2c-7.5,3.8-12.4,10-15.8,17.6
				C580.3,379.7,586.2,374.2,594.3,371.6z"/>
		</g>
		<g>
			<path class="st24" d="M630.9,461.6c-0.1-0.2-0.2-0.4-0.4-0.4c-2.1-0.8-3.1-2.1-1.1-3.8c1-0.8,0.2-1.3,0.4-2
				c-4,1.9-8.2,2.6-12.6,2.8C621.4,460.7,625.9,461.9,630.9,461.6z"/>
		</g>
		<g>
			<path class="st22" d="M580.9,277c0.1,0.3,0.2,0.7,0.3,1c7.1-1.2,14.2-2.5,21.5-1.9c0.4-0.4,0.4-0.7-0.2-0.9
				C595.2,274.7,588,274.9,580.9,277z"/>
		</g>
		<g>
			<path class="st25" d="M569.3,329.4c0.2,0.1,0.4,0.3,0.6,0.4c0.9-0.9-0.7-3.1,1.7-3.2c-4.5-0.7-9.1-0.7-13.7-0.3
				c1,0.3,2.1,0.6,3.1,0.9C563.6,328.5,566.5,328.7,569.3,329.4z"/>
		</g>
		<g>
			<path class="st22" d="M602.5,275.3c0.1,0.3,0.2,0.6,0.2,0.9c4.7,0.4,9.5,0.8,14.2,1.2C612.3,275.8,607.5,275.2,602.5,275.3z"/>
		</g>
		<g>
			<path class="st26" d="M566.9,343.5c-0.6-0.5-1.2-1-1.1-1.9c-2.1-0.3-4.2-0.3-6.3-0.1c-0.4,0.2-0.5,0.5-0.3,0.8
				C561.8,343,564.3,343.4,566.9,343.5z"/>
		</g>
		<g>
			<path class="st27" d="M553.3,334.3c-1.2-0.6-1.7-1.5-1.4-2.8c-1.9-0.3-3.7,0.3-6.1,1C548.6,333.2,550.8,334.3,553.3,334.3z"/>
		</g>
		<g>
			<path class="st19" d="M604.8,296.1c3.5,0.1,7.6-1.6,10.6-3.6c-3.2,1-6.4,2-9.7,2.9C605.5,295.7,604.5,296.1,604.8,296.1z"/>
		</g>
		<g>
			<path class="st28" d="M583.2,391.2c-0.7-1.3,0.7-2.1,0.8-3.2c-2.6,2.7-4.6,5.8-6,9.4C579.8,395.3,581.5,393.3,583.2,391.2z"/>
		</g>
		<g>
			<path class="st20" d="M566.2,457.2c3.4,0.1,4.3-2.5,5.4-5C569.5,453.6,567.8,455.3,566.2,457.2z"/>
		</g>
		<g>
			<path class="st19" d="M605.8,295.4c-2.7,0.5-5.5,0.9-8.2,1.4c-0.2,0.4,0.1,0.6,0.3,0.8c2.8-0.1,6.7-0.8,9.3-1.8
				C606.9,295.7,605.7,295.6,605.8,295.4z"/>
		</g>
		<g>
			<path class="st19" d="M597.8,297.6c-0.1-0.3-0.2-0.5-0.3-0.8c-2,0.3-4,0.6-6,0.9c-0.1,0.2-0.2,0.5-0.3,0.7
				C593.4,298.1,595.6,297.9,597.8,297.6z"/>
		</g>
		<g>
			<path class="st26" d="M559.2,342.3c0.1-0.3,0.2-0.6,0.3-0.8c-1.5-0.3-3.1-0.4-5,0.1C556.4,342.2,557.8,342.5,559.2,342.3z"/>
		</g>
		<g>
			<path class="st29" d="M582.7,339.9c1,2,2.1,3.9,4.6,1.8c1.2-1.7,1.4-3.5-0.7-4.5C584,336,583.2,337.9,582.7,339.9z"/>
		</g>
		<g>
			<path class="st14" d="M624.9,386c-1.2,0.3-2.3,1-3.2,1.9C624.2,389.5,624.2,387.1,624.9,386z"/>
		</g>
		<g>
			<path class="st2" d="M581.5,459.7c1.9-0.2,3.7-1,5.7-0.4c1.8,0.6,2.4,0,1.3-1.7c-0.3-0.4-0.4-1,0.1-1.3c0.2-0.1,0.9,0.1,1,0.3
				c1.7,4.1,5.4,2.4,7.9,2.1c3.2-0.3,6.1,0,9.2,0.5c-1,1.3-1.9,2.2-3.5,2.1c-0.5,0-1.3,0.2-1.3,1c0,0.7,0.8,1.1,1.3,1
				c3-0.7,6.1-0.5,8.9-1.7c1.1-0.5,0.6-1.3-0.1-1.6c-3.6-1.9-5.1-5.2-6.1-8.8c-1.7-1.1-3.4-6.2-2.7-8c0.2-0.6,0.6-1.1,0.8-1.6
				c0.4-1,1.8-2.2-0.1-3c-1.6-0.8-2.5,0.6-3.4,1.6c-0.3,0.3,0.2,1.3-0.7,1.4c-5,0.3-8.5,3.7-12.6,5.8c-1.4,0.7-2.8,1-4.2,1.4
				c-1.8,0.5-4,1-3.7,3.9c0.1,1.1-0.5,2.3-1.8,2.5c-1.6,0.2-1.1,1.4-1.1,2.3c0,1.4,1,0.9,1.8,0.9
				C579.4,458.4,580.4,459.3,581.5,459.7z"/>
		</g>
		<g>
			<path class="st2" d="M569.7,463.9c3.2,0.5,0.4-2.1,1.4-2.7c-0.7-1.9-2-3-4.1-3c-1.6-0.1-2,1.3-2.3,2.4c-0.3,1.3,0.4,2.4,1.8,2.7
				C567.6,463.4,568.7,463.2,569.7,463.9z"/>
		</g>
		<g>
			<path class="st2" d="M571.5,454.2c-0.2,0.6,0,1,0.6,1.1c0.9,0.2,1.5-0.3,1.9-1.1c0.2-0.4,0.3-0.9-0.2-1
				C572.8,452.9,572.2,453.8,571.5,454.2z"/>
		</g>
		<g>
			<path class="st1" d="M665.2,377.8c-0.9,2.1-3.4,2.6-4.6,4.5C664.4,383,664.7,380.3,665.2,377.8z"/>
		</g>
		<g>
			<path class="st1" d="M688.1,399.5c0.2,0,0.3-0.2,0.3-0.4c2-3,3.6-6.2,5-9.5c0.2,0,0.2-0.1,0.2-0.3
				C690.8,392.1,689.1,395.6,688.1,399.5z"/>
		</g>
		<g>
			<path class="st7" d="M691.1,370.1c-0.1-1.2-0.4-2.3-1-3.4c-0.5,0.3-1.9-0.8-1.5,0.9C689,368.8,689,370.6,691.1,370.1z"/>
		</g>
		<g>
			<path class="st5" d="M668.4,303.7c-0.2,0.5-0.2,1,0.4,1.2c0.5,0.2,1,0.2,1.3-0.2c0.4-0.4,0.2-1-0.2-1.3
				C669.4,303,668.8,303.2,668.4,303.7z"/>
		</g>
		<g>
			<path class="st8" d="M693.4,389.5c-1.7,3.2-3.3,6.4-5,9.5C690.5,396.1,692.4,393.1,693.4,389.5z"/>
		</g>
	</g>
	<g>
		<path d="M428.7,686.1v11.6c0,2.1,0,4.2,0,6.4c0,2.2,0,4.3,0,6.3h-5.9l-0.1-50.6h18.3c2.5,0,4.9,0.3,7,1c2.2,0.7,4.1,1.6,5.7,2.8
			c1.6,1.2,2.9,2.5,3.8,4.1c0.9,1.6,1.4,3.2,1.4,5c0,1.9-0.5,3.6-1.4,5.2c-0.9,1.6-2.2,3.1-3.8,4.3c-1.6,1.2-3.5,2.2-5.7,2.9
			c-2.2,0.7-4.5,1-7,1H428.7z M428.7,664.7v16.5h12.4c1.6,0,3.1-0.2,4.6-0.6c1.4-0.4,2.7-1,3.8-1.8c1.1-0.8,2-1.6,2.6-2.7
			s0.9-2.1,0.9-3.4c0-1.1-0.3-2.1-0.9-3.1c-0.6-1-1.5-1.8-2.6-2.6c-1.1-0.7-2.4-1.3-3.9-1.8c-1.5-0.4-3-0.7-4.7-0.7H428.7z"/>
		<path d="M480,687.6v22.9h-6l-0.1-50.6h18.3c2.5,0,4.9,0.3,7,1c2.2,0.7,4.1,1.6,5.7,2.7c1.6,1.2,2.9,2.6,3.9,4.1
			c1,1.6,1.4,3.3,1.4,5.1c0,1.9-0.5,3.6-1.4,5.2c-1,1.6-2.3,3-3.9,4.2c-1.6,1.2-3.6,2.2-5.7,2.9c-2.2,0.7-4.5,1-7,1h-5.9
			c1.6,1.5,3.3,3,5,4.6c1.7,1.5,3.4,3.1,5.2,4.7c2.6,2.4,5.3,5,8.2,7.7c2.9,2.7,5.6,5.2,8,7.5h-7.8L480,687.6z M480,664.6v16.5h12.2
			c1.6,0,3.2-0.2,4.6-0.6c1.5-0.4,2.7-1,3.8-1.8c1.1-0.8,1.9-1.6,2.6-2.6c0.7-1,1-2.1,1-3.3c0-1.1-0.3-2.1-1-3.1
			c-0.7-1-1.5-1.9-2.6-2.6c-1.1-0.8-2.4-1.4-3.9-1.8c-1.5-0.4-3-0.7-4.7-0.7H480z"/>
		<path d="M531.8,710.5h-6.1l-0.1-50.6h6.1L531.8,710.5z"/>
		<path d="M589.2,659.8h5.7v50.6h-6.1l-0.1-40.2c-2.7,3.7-5.5,7.5-8.3,11.5c-2.8,4-5.5,7.8-8,11.5h-3.8L552,670.3c0,3.1,0,6.2,0,9.4
			s0,6.4,0,9.5v21.2h-6l-0.1-50.6h5.5l19.1,26.1L589.2,659.8z"/>
		<path d="M644,686.1h-26.3v19.4h30.7l0.1,5h-36.7l-0.1-50.6h36.7v4.8h-30.7v16.4H644V686.1z"/>
	</g>
	<g>
		<path class="st30" d="M291.1,522c4.6-0.2,9.6-0.3,15-0.2c5.4,0.1,10.3,0.4,14.6,1c4.6,0.7,8.4,1.8,11.4,3.3c3,1.6,5.5,3.6,7.3,6.1
			c1.8,2.5,3.1,5.5,4,9s1.3,7.4,1.6,11.8c0.3,4.2,0,8.2-0.7,12c-0.7,3.7-1.9,7.1-3.3,10c-1.5,3.1-3.6,5.7-6.3,7.6
			c-2.7,2-6.2,3.3-10.5,4.1c-2,0.3-4,0.6-6,0.8c-2,0.2-3.8,0.4-5.7,0.7c-1.8,0.3-3.5,0.7-5,1.3c-1.5,0.6-2.7,1.4-3.6,2.5
			c-1.8,2.1-2.7,4.9-2.9,8.3c-0.2,3.4-0.3,6.9-0.3,10.5v10.5c0,1.8,0,3.5,0.1,5.1c0.1,1.6-0.3,3-1.1,4.3c-0.7,1.1-1.9,2-3.5,2.6
			c-1.7,0.6-3.4,0.9-5.3,0.9c-1.8,0-3.6-0.3-5.4-0.9c-1.8-0.6-3-1.6-3.8-2.9c-0.8-1.2-1.3-2.9-1.4-5c-0.1-2.1-0.2-4.4-0.1-6.9
			c0.1-2.5,0.2-4.9,0.4-7.3c0.2-2.4,0.2-4.5,0.1-6.4c-0.3-5.8-0.3-12.3-0.1-19.6c0.2-7.3,0.3-14.1,0.3-20.6c0-4.6-0.1-8.8-0.2-12.8
			c-0.1-4-0.2-8.6-0.2-13.8c0-2.2,0-4.6,0-7.1c0-2.5,0.7-4.5,2-5.9c1.1-1.2,2.3-2,3.7-2.3C287.6,522.4,289.2,522.2,291.1,522z
			 M304.3,541c-1.2,1-2.1,2.7-2.7,5.2c-0.6,2.5-0.9,5.1-1,7.9c-0.1,2.8,0.2,5.5,0.7,8c0.5,2.6,1.3,4.5,2.4,5.9
			c1.3,1.5,3.1,2.4,5.2,2.8c2.1,0.4,4.1,0.4,6-0.2c2.3-0.7,4.2-1.9,5.6-3.8c1.4-1.8,2.5-4,3.1-6.4c0.7-2.4,0.9-4.9,0.7-7.5
			c-0.2-2.6-0.8-5-1.8-7.2c-1-2.2-2.5-3.9-4.5-5.3c-2-1.3-4.4-1.9-7.2-1.7c-1.2,0.1-2.4,0.4-3.6,0.8
			C305.9,539.9,304.9,540.4,304.3,541z"/>
		<path class="st30" d="M380.7,520.4c4.3-0.2,8.2,0.1,11.8,1.1c3.5,0.9,6.6,2.3,9.3,4c2.7,1.7,5,3.8,6.9,6.3
			c1.9,2.5,3.3,5.1,4.3,7.9c0.9,2.7,1.4,5.6,1.5,8.8c0.1,3.2,0.1,6.6,0.1,10.1V599c0,7-0.9,13.1-2.6,18.2c-1.8,5.1-4.9,9.4-9.3,12.7
			c-2.2,1.6-4.8,2.9-7.8,3.9c-3,1.1-6.2,1.7-9.6,2c-3.4,0.3-6.8,0.1-10.1-0.5c-3.4-0.6-6.5-1.8-9.3-3.4c-4.2-2.5-7.5-5.9-10-10.3
			c-2.5-4.4-3.9-9.5-4.2-15.1c-0.4-6.4-0.6-12.5-0.5-18.5c0.1-6,0.2-12.1,0.3-18.3c0-6.6,0-12.7,0.1-18.5c0.1-5.7,1.2-10.9,3.3-15.5
			c2-4.2,5.1-7.8,9.1-10.5C367.9,522.4,373.5,520.8,380.7,520.4z M371.5,558.2c0,7.5-0.1,15-0.2,22.5c-0.1,7.5-0.1,15.1,0.2,22.7
			c0.3,3.9,1,7.3,2.1,10.2c1.1,2.9,3.5,4.6,7,5.2c2.7,0.4,4.9,0.2,6.7-0.8c1.8-1,3.2-2.2,4.3-3.7c1.9-2.7,2.8-6.1,2.7-10.1
			c-0.1-4.1-0.1-8.1-0.1-12.1c0-3.3,0-6.6-0.1-9.9c-0.1-3.2-0.1-6.6-0.1-10.2c0-3.1,0.1-6.7,0.3-10.9c0.2-4.1,0-8-0.6-11.6
			c-0.6-3.6-1.8-6.6-3.5-9c-1.8-2.3-4.7-3.3-8.7-2.8c-2.4,0.2-4.3,1-5.7,2.4c-1.4,1.4-2.3,3.1-2.9,5c-0.6,2-1,4.1-1.1,6.4
			C371.6,553.8,371.5,556.1,371.5,558.2z"/>
		<path class="st30" d="M441.8,522.5c1.6-0.1,4-0.2,7.1-0.3c3.1-0.1,6.1-0.1,9.1,0.2c2.7,0.1,5.4,0.2,8.1,0.3
			c2.7,0.1,4.8,0.4,6.3,1.1c1.9,1,3.2,2.7,3.8,5c0.7,2.3,0.3,4.6-1,6.7c-0.8,1.2-1.8,2.1-3,2.8c-1.2,0.6-2.5,1.2-4,1.8
			c-1.4,0.6-2.8,1.1-4.1,1.8c-1.3,0.6-2.3,1.5-3.1,2.6c-0.8,1.2-1.4,2.7-1.7,4.3c-0.3,1.6-0.5,3.3-0.5,5.2s0.1,3.7,0.2,5.6
			c0.1,1.9,0.1,3.7,0,5.5c-0.5,7.6-0.7,15-0.5,22.2s0.3,14.5,0.3,21.8v11c0,2,0,4,0,5.9c0,1.9-0.3,3.5-1,4.7
			c-0.7,1.2-1.8,2.2-3.3,2.9c-1.6,0.7-3.2,1.1-5,1.2c-1.8,0.1-3.4-0.2-5.1-0.7c-1.6-0.5-2.9-1.4-3.8-2.8c-0.8-1.1-1.4-2.5-1.6-4.1
			c-0.3-1.6-0.4-3.4-0.4-5.4c0-2,0.1-3.9,0.2-5.9c0.1-2,0.2-4,0.2-5.9v-44.4c0-2.2,0-4.5,0.1-6.9c0.1-2.3,0-4.5-0.2-6.6
			c-0.2-2.1-0.7-4-1.4-5.8c-0.7-1.8-1.9-3.2-3.3-4.2c-0.8-0.6-1.8-1.1-2.9-1.5c-1.1-0.4-2.3-0.9-3.3-1.4c-1.1-0.5-2.1-1-3-1.6
			c-0.9-0.6-1.7-1.3-2.2-2.2c-1.2-2.2-1.5-4.5-0.7-6.9c0.7-2.3,2-4,3.7-4.9c1.9-1,4.4-1.4,7.6-1.3
			C436.4,522.6,439.3,522.7,441.8,522.5z"/>
		<path class="st30" d="M492.7,522c1.8-0.2,3.5-0.1,5.3,0.3c1.8,0.4,3.1,1.1,4.1,2c1.1,1.1,1.8,2.7,2.2,4.8c0.4,2.1,0.6,4.3,0.6,6.8
			c0,2.5-0.1,4.9-0.2,7.4c-0.1,2.5-0.2,4.7-0.2,6.6c0,12.1,0,23.5-0.1,34.4c-0.1,10.9-0.1,22.1-0.1,33.7c0,2.2,0,4.5,0,6.9
			c0,2.4-0.5,4.3-1.4,5.6c-0.7,1-1.8,1.8-3.2,2.3c-1.5,0.6-3.1,0.9-4.8,1c-1.7,0.1-3.3-0.1-4.9-0.6c-1.6-0.5-2.8-1.3-3.7-2.4
			c-1.1-1.2-1.7-3.1-1.7-5.5c-0.1-2.5,0-4.7,0.3-6.7c0.1-2.3,0.1-4.7-0.1-6.9c-0.2-2.3-0.4-4.4-0.5-6.3c-0.1-2.5-0.1-4.9,0-7.2
			c0.1-2.3,0.2-4.5,0.2-6.4v-40.3c0-1.8,0.1-3.9,0.2-6.3c0.1-2.4,0.1-4.8-0.2-7.3c-0.3-4.2,0-7.8,0.7-10.8
			C485.8,524.4,488.4,522.6,492.7,522z"/>
		<path class="st30" d="M543.5,521c8.9-0.6,16.2,0.9,21.8,4.3c5.6,3.4,9.2,8.5,10.6,15.1c0.4,2.1,0.6,4.5,0.7,7
			c0.1,2.6-0.6,4.6-1.9,6.2c-1.4,1.7-3.5,2.7-6.6,2.9c-3,0.3-5.5-0.3-7.4-1.8c-0.8-0.7-1.5-1.6-1.9-2.7c-0.5-1.1-0.9-2.3-1.2-3.5
			c-0.3-1.2-0.7-2.5-1.1-3.7c-0.4-1.2-0.9-2.2-1.6-3c-0.8-1.1-2-2.2-3.6-3.2s-3.8-1.4-6.7-1.2c-1.2,0.2-2.4,0.6-3.5,1.2
			c-1.1,0.6-2.3,1.5-3.3,2.7c-1.4,1.6-2.3,3.7-2.9,6.4c-0.6,2.7-0.9,5.8-1,9.1c-0.1,3.3,0,6.9,0.1,10.5c0.1,3.7,0.3,7.1,0.4,10.4
			c0.1,3.7,0.2,7.1,0.3,10.2c0.1,3.1,0,6.3-0.3,9.5c-0.1,2.6-0.2,5.1-0.1,7.5c0.1,2.5,0.4,4.7,1,6.8c0.6,2.1,1.6,3.8,3,5.2
			c1.4,1.4,3.3,2.3,5.8,2.6c3.4,0.6,6.1,0.1,8.2-1.5c2.1-1.6,3.6-3.6,4.5-6c0.9-2.5,1.2-5,1.1-7.8c-0.1-2.7-0.7-5-1.6-6.8
			c-0.8-1.6-1.7-2.8-2.7-3.8c-1-1-2.1-2.3-3.1-3.8c-0.7-1-1.2-2.1-1.6-3.3c-0.4-1.2-0.6-2.4-0.6-3.6c0-1.2,0.3-2.4,0.9-3.4
			c0.6-1.1,1.6-1.9,2.9-2.6c1.2-0.6,2.9-0.9,5-1.2c2.1-0.2,4.3-0.3,6.6-0.3c2.3,0.1,4.4,0.3,6.4,0.7c2,0.4,3.3,0.9,4.2,1.6
			c1.5,1.2,2.3,3,2.5,5.3c0.2,2.3,0.3,4.7,0.3,7.3c0,5.2,0,10.1,0.1,14.6c0.1,4.5,0.1,9.4,0.1,14.9c0,3.5-0.2,6.5-0.6,9.1
			c-0.4,2.6-2.1,4.4-5.1,5.3c-1.6,0.4-3.2,0.6-4.7,0.4c-1.5-0.2-3-0.4-4.5-0.8c-1.5-0.4-3-0.8-4.5-1.2c-1.5-0.4-3.1-0.5-4.9-0.4
			c-2.6,0.2-5,0.9-7.3,1.9c-2.3,1.1-4.5,1.7-6.5,1.9c-2.4,0.4-4.7,0.5-6.8,0.2c-2.1-0.3-4-0.9-5.7-1.8c-1.7-0.8-3.1-1.8-4.4-3
			c-1.2-1.2-2.2-2.4-3-3.8c-2.4-3.8-4-8.3-4.6-13.6c-0.6-5.2-0.9-10.6-0.9-16.1v-33.5c0-5.7,0.2-11.2,0.6-16.4
			c0.4-5.2,1.8-9.8,4.3-13.7c2.3-3.8,5.5-6.9,9.7-9.4C532.5,522.8,537.6,521.4,543.5,521z"/>
		<path class="st30" d="M595.8,522.9c1.8-0.2,3.6-0.1,5.6,0.3c2,0.4,3.5,1.2,4.6,2.4c0.8,1,1.3,2.4,1.6,4.1c0.3,1.7,0.4,3.6,0.5,5.6
			c0.1,2,0,4.1-0.1,6.2c-0.1,2.1-0.2,4-0.2,5.7c0,7.8-0.1,15.5-0.3,23.2c-0.2,7.6-0.1,15.4,0.3,23.2c0.1,2.7,0.2,5.4,0.1,8.1
			c-0.1,2.7,0.1,5.3,0.5,7.6c0.4,2.3,1.2,4.4,2.4,6c1.2,1.7,3.1,2.8,5.7,3.3c2.6,0.6,4.9,0.4,7-0.6c2.1-0.9,3.6-2.1,4.6-3.6
			c1.6-2.3,2.5-5.5,2.5-9.4c0.1-3.9,0.1-7.8,0.1-11.5v-45.7c0-1.4,0-3.2-0.1-5.3c-0.1-2.1-0.1-4.1,0-6.2c0.1-2.1,0.2-4,0.5-5.8
			c0.3-1.8,0.7-3.2,1.4-4.2c0.7-1.1,1.7-2,3.1-2.6c1.4-0.6,2.9-1,4.6-1.1c1.6-0.1,3.2,0.1,4.8,0.5c1.6,0.4,2.8,1.2,3.7,2.2
			c1.1,1.1,1.7,2.8,1.7,4.9c0.1,2.2,0.2,4.4,0.3,6.6c0.3,4.8,0.3,9.2,0,13.2c-0.3,8.4-0.3,16.9-0.2,25.6c0.1,8.7,0.2,17.5,0.2,26.4
			c0,7.9-1.6,14.6-4.7,20.1c-3.1,5.5-8,9.5-14.6,12.1c-3,1.1-6.3,1.9-10,2.3c-3.7,0.4-7.5,0-11.4-1.3c-6.5-1.8-11.4-4.9-14.9-9.2
			s-5.6-9.7-6.6-16.1c-0.4-3-0.7-6.2-0.8-9.7c-0.1-3.5-0.2-7-0.1-10.6c0.1-3.6,0.1-7.3,0.2-11c0.1-3.7,0.1-7.3,0.1-10.7v-21.6
			c0-2.6-0.1-5.2-0.3-7.8c-0.2-2.6-0.2-5,0.1-7.3c0.3-2.2,1-4.1,2.2-5.7C591.2,524.2,593.1,523.2,595.8,522.9z"/>
		<path class="st30" d="M687.2,522.4c1.8-0.1,3.6-0.2,5.6-0.3c2-0.1,3.9,0,5.8,0.3c1.9,0.2,3.6,0.6,5.3,1.3c1.6,0.6,2.8,1.5,3.6,2.6
			c1.1,1.3,1.8,3.2,2.2,5.5s0.8,4.7,1.2,7c0.7,3.6,1.3,6.9,1.9,10.1c0.6,3.2,1.2,6.3,1.8,9.5c0.6,3.1,1.2,6.3,1.8,9.5
			c0.6,3.2,1.2,6.6,1.9,10.2c1.3,6.7,2.6,13.2,3.6,19.6c1.1,6.4,2.4,13,3.8,19.9c0.5,2.3,1,4.7,1.4,7.1c0.4,2.4,0.3,4.4-0.4,5.9
			c-0.7,1.3-1.8,2.3-3.4,2.9c-1.6,0.6-3.3,0.9-5.1,0.9c-1.8,0-3.5-0.3-5.2-0.8c-1.7-0.6-3-1.3-4-2.3c-0.7-0.7-1.2-1.5-1.5-2.6
			c-0.3-1.1-0.6-2.2-0.9-3.3c-0.3-1.2-0.6-2.4-1-3.6c-0.4-1.2-0.9-2.3-1.4-3.2c-1.4-1.8-3.1-3.1-5.4-3.8c-2.2-0.8-4.5-1.1-6.8-0.9
			c-2.3,0.2-4.5,0.7-6.6,1.6c-2.1,0.9-3.6,2-4.6,3.3c-0.9,1.2-1.6,2.5-1.9,3.8c-0.3,1.3-0.7,2.7-1.1,4s-0.9,2.6-1.5,3.8
			c-0.6,1.2-1.6,2.1-2.9,2.8c-1.2,0.6-2.6,0.9-4.1,1.1c-1.5,0.2-2.9,0.1-4.3-0.1c-1.4-0.2-2.6-0.6-3.6-1.3c-1.1-0.6-1.8-1.4-2.2-2.3
			c-0.8-1.7-0.9-3.8-0.4-6.4c0.5-2.6,1-4.9,1.4-7c1.3-6.8,2.6-13.3,3.8-19.5s2.4-12.9,3.6-20.2c0.7-3.9,1.3-7.5,1.9-10.8
			c0.6-3.3,1.2-6.5,1.7-9.5c0.5-3.1,1.1-6.2,1.7-9.3c0.6-3.1,1.2-6.5,1.9-10.2c0.4-2,0.8-3.9,1.1-5.8c0.3-1.8,0.9-3.4,1.6-4.8
			c0.7-1.3,1.8-2.4,3.2-3.3S684.6,522.6,687.2,522.4z M685.8,569.9c-0.4,2.8-0.9,5.7-1.4,8.9c-0.5,3.1-0.8,5.8-0.8,8
			c0.1,3.1,1.2,5.8,3.1,7.9c2,2.2,4.8,2.8,8.6,1.8c2.6-0.7,4.3-2.1,5.3-4.2c0.9-2.1,1.4-4.5,1.4-7.3c0-2.7-0.2-5.5-0.7-8.5
			c-0.5-2.9-0.8-5.5-1.1-7.7c-0.3-1.2-0.5-2.6-0.8-4.3c-0.3-1.6-0.7-3.1-1.2-4.5c-0.5-1.4-1.3-2.5-2.2-3.3c-0.9-0.8-2.2-1.1-3.8-0.9
			c-1.4,0.2-2.4,0.9-3.2,1.9c-0.8,1.1-1.4,2.3-1.8,3.6s-0.7,2.8-0.8,4.4C686,567.3,685.9,568.7,685.8,569.9z"/>
		<path class="st30" d="M748,522.2c4.2-0.2,8.5-0.4,13-0.4c4.5-0.1,8.8,0.1,13,0.5c4.2,0.4,8,1.1,11.3,2.2c3.4,1.1,6.1,2.6,8.1,4.6
			c1.8,1.7,3.2,3.9,4.3,6.6c1.1,2.7,1.8,5.6,2.1,8.7c0.3,3.1,0.3,6.2-0.2,9.4c-0.5,3.2-1.3,6.1-2.5,8.8c-0.5,1-1.2,2-1.9,2.8
			c-0.7,0.9-1.5,1.9-2.2,2.9c-0.7,1.1-1.4,2.2-1.8,3.4c-0.5,1.2-0.6,2.6-0.5,4c0.1,1.6,0.6,3,1.3,4.2c0.7,1.2,1.6,2.4,2.5,3.6
			c0.9,1.2,1.8,2.4,2.6,3.7c0.8,1.3,1.3,2.8,1.6,4.4c0.9,4.2,1.3,9.1,1,14.6c-0.3,5.5-0.3,10.7-0.2,15.6c0.1,1.6,0.2,3.2,0.2,5
			c0,1.8-0.5,3.2-1.4,4.4c-0.7,0.9-1.7,1.6-3.1,2.1c-1.4,0.5-2.9,0.8-4.6,0.8c-1.6,0-3.2-0.2-4.8-0.7c-1.6-0.4-2.8-1.2-3.7-2.2
			c-0.9-1-1.7-2.3-2.1-3.8c-0.5-1.5-0.8-3.2-0.9-5.1c-0.1-1.9-0.2-3.9-0.1-5.9c0.1-2.1,0.1-4.2,0.1-6.3c0-4.1-0.1-8.1-0.4-11.8
			c-0.3-3.7-1.2-6.7-2.8-9c-0.9-1.3-2.3-2.5-4.2-3.5s-4.2-1.2-7.2-0.7c-2,0.3-3.6,1.1-4.7,2.4c-1.1,1.3-1.9,2.8-2.3,4.7
			c-0.5,1.8-0.7,3.9-0.8,6.3c-0.1,2.3-0.1,4.7-0.1,7.2c0,2.1,0,4.3-0.1,6.5c-0.1,2.2,0,4.5,0.1,6.7c0.3,3.1,0.2,5.9-0.2,8.5
			c-0.4,2.5-1.8,4.4-4.1,5.6c-1.4,0.7-2.8,1.1-4.5,1.2c-1.6,0.1-3.1,0-4.6-0.4c-1.4-0.4-2.7-1-3.8-1.8c-1.1-0.8-2-1.7-2.5-2.8
			c-0.7-1.4-0.9-3.4-0.8-5.8c0.1-2.4,0.3-4.8,0.4-7.1c0.1-3.6,0.2-6.8,0.1-9.8c-0.1-3-0.1-5.9-0.2-8.9c-0.1-3-0.1-6.1-0.2-9.3
			c-0.1-3.2,0-6.9,0.3-10.9c0.3-5,0.3-9.6,0.2-13.8c-0.1-4.2-0.3-8.5-0.4-12.8c-0.1-1.9-0.1-4,0.1-6.2c0.2-2.2,0.2-4.6,0.1-7
			c-0.1-3.2-0.2-6-0.1-8.2c0.1-2.2,1-4,2.7-5.4c1.1-0.8,2.3-1.3,3.7-1.5C744.2,522.5,745.9,522.3,748,522.2z M760.9,539.3
			c-1.9,1.2-3.1,3-3.5,5.3c-0.5,2.3-0.7,4.9-0.7,8c0,2.7,0.3,5.2,0.8,7.7c0.5,2.5,1.7,4.3,3.4,5.5c2.8,1.9,6.1,2.3,9.7,1.2
			c3.2-1,5.5-3.1,6.9-6.3c1.3-3.2,1.8-6.5,1.4-10c-0.4-3.5-1.7-6.5-3.7-9c-2.1-2.6-5-3.8-8.8-3.7c-1.2,0-2.3,0.1-3.1,0.4
			C762.4,538.6,761.6,538.9,760.9,539.3z"/>
	</g>
	<g>
		<path d="M327.4,516.5c-0.8,0-1.5-0.1-2.3-0.4c-3.7-1.3-5.8-5.3-4.5-9c6.2-18.7,14.9-36.6,25.9-53.2c18.1-27.7,42.8-51.7,71.3-69.4
			c28.5-17.8,60.9-29.4,93.7-33.5c3.9-0.5,7.5,2.3,8,6.2c0.5,3.9-2.3,7.5-6.2,8c-62.4,7.8-120.3,43.9-154.8,96.6
			c-10.2,15.6-18.4,32.4-24.3,49.9C333.2,514.6,330.4,516.5,327.4,516.5z"/>
	</g>
	<g>
		<path d="M751.6,513.7c-3,0-5.7-1.9-6.8-4.8c-9.6-27.7-25.3-53.8-45.5-75.7c-2.7-2.9-2.5-7.4,0.4-10.1s7.4-2.5,10.1,0.4
			c21.5,23.3,38.3,51.2,48.5,80.7c1.3,3.7-0.7,7.8-4.4,9.1C753.2,513.6,752.4,513.7,751.6,513.7z"/>
	</g>
	<g>
		<path d="M542.8,812.1c-18.6,0-37.9-2.1-57.9-6.3l-0.3-0.1c-39-10-75.1-29.9-104.3-57.7c-29.4-28-50.7-62.6-61.6-100.3
			c-1.1-3.8,1.1-7.8,4.9-8.8c3.8-1.1,7.8,1.1,8.8,4.9c20.7,72.1,80.3,128.8,155.6,148.1c61.2,13,115.9,4.8,162.6-24.1l0.1-0.1
			c8.6-5.2,15.4-10.2,22.5-15.6c35.6-28.5,59.2-61.6,72-101.3c1.2-3.8,5.3-5.8,9-4.6c3.8,1.2,5.8,5.2,4.6,9
			c-13.7,42.4-38.8,77.8-76.8,108.1l-0.2,0.1c-7.2,5.4-14.6,10.9-23.8,16.5C623.5,801.3,584.9,812.1,542.8,812.1z"/>
	</g>
</g>
</svg>
